{
	"asset":{
		"version":"2.0",
		"generator":"Created using the official Cinema 4D glTF Exporter 1.000x284978"
	},
	"scenes":[{
		"nodes":[0]
	}],
	"nodes":[{
		"name":"GlassCase.002",
		"translation":[0.0,
		0.0,
		0.0],
		"rotation":[0.7071067690849304,
		0.0,
		0.0,
		-0.7071067690849304],
		"scale":[5.954229354858398,
		5.954229354858398,
		5.954229354858398],
		"mesh":0,
		"children":[1]
	},
	{
		"name":"MS-Multiverse-logo-blueblack_060522_1",
		"translation":[6.256544793359353e-8,
		0.000016016754670999945,
		-0.000004004188667749986],
		"rotation":[-0.7071067690849304,
		0.0,
		0.0,
		-0.7071067690849304],
		"scale":[11.777039527893067,
		11.777039527893067,
		11.777039527893067],
		"mesh":1
	}],
	"meshes":[{
		"name":"GlassCase.002",
		"primitives":[{
			"attributes":{
				"POSITION":1,
				"NORMAL":2,
				"TEXCOORD_0":3
			},
			"indices":0,
			"material":0
		}]
	},
	{
		"name":"MS-Multiverse-logo-blueblack_060522_1",
		"primitives":[{
			"attributes":{
				"POSITION":5,
				"NORMAL":6,
				"TEXCOORD_0":7
			},
			"indices":4,
			"material":1
		}]
	}],
	"accessors":[{
		"bufferView":0,
		"byteOffset":0,
		"type":"SCALAR",
		"componentType":5123,
		"count":10356,
		"min":[0],
		"max":[2757]
	},
	{
		"bufferView":1,
		"byteOffset":0,
		"type":"VEC3",
		"componentType":5126,
		"count":2758,
		"min":[-22.653566360473634,
		-27.13227081298828,
		0.10263442993164063],
		"max":[22.89808464050293,
		26.78295135498047,
		64.04476165771485]
	},
	{
		"bufferView":1,
		"byteOffset":12,
		"type":"VEC3",
		"componentType":5126,
		"count":2758,
		"min":[-1.0,
		-1.0,
		-1.0],
		"max":[1.0,
		1.0,
		1.0]
	},
	{
		"bufferView":1,
		"byteOffset":24,
		"type":"VEC2",
		"componentType":5126,
		"count":2758,
		"min":[0.03920000046491623,
		0.08263987302780152],
		"max":[0.9392776489257813,
		0.9607999324798584]
	},
	{
		"bufferView":2,
		"byteOffset":0,
		"type":"SCALAR",
		"componentType":5123,
		"count":6,
		"min":[0],
		"max":[3]
	},
	{
		"bufferView":3,
		"byteOffset":0,
		"type":"VEC3",
		"componentType":5126,
		"count":4,
		"min":[-0.9168773889541626,
		0.0719558596611023,
		2.299534559249878],
		"max":[0.8609004020690918,
		1.071955919265747,
		2.299534559249878]
	},
	{
		"bufferView":3,
		"byteOffset":12,
		"type":"VEC3",
		"componentType":5126,
		"count":4,
		"min":[0.0,
		0.0,
		1.0],
		"max":[0.0,
		0.0,
		1.0]
	},
	{
		"bufferView":3,
		"byteOffset":24,
		"type":"VEC2",
		"componentType":5126,
		"count":4,
		"min":[0.0,
		-1.0],
		"max":[1.0,
		0.0]
	},
	{
		"bufferView":4,
		"byteOffset":0,
		"type":"SCALAR",
		"componentType":5126,
		"count":3,
		"min":[0.0],
		"max":[3.0]
	},
	{
		"bufferView":4,
		"byteOffset":12,
		"type":"VEC3",
		"componentType":5126,
		"count":3,
		"min":[6.256544793359353e-8,
		0.000016016754670999945,
		-0.000004004188667749986],
		"max":[6.256544793359353e-8,
		0.000016016754670999945,
		-0.000004004188667749986]
	},
	{
		"bufferView":5,
		"byteOffset":0,
		"type":"SCALAR",
		"componentType":5126,
		"count":3,
		"min":[0.0],
		"max":[3.0]
	},
	{
		"bufferView":5,
		"byteOffset":12,
		"type":"VEC4",
		"componentType":5126,
		"count":3,
		"min":[-0.7071067690849304,
		0.0,
		0.0,
		-0.7071067690849304],
		"max":[-0.7071067690849304,
		0.0,
		0.0,
		-0.7071067690849304]
	},
	{
		"bufferView":6,
		"byteOffset":0,
		"type":"SCALAR",
		"componentType":5126,
		"count":3,
		"min":[0.0],
		"max":[3.0]
	},
	{
		"bufferView":6,
		"byteOffset":12,
		"type":"VEC3",
		"componentType":5126,
		"count":3,
		"min":[11.777039527893067,
		11.777039527893067,
		11.777039527893067],
		"max":[11.777039527893067,
		11.777039527893067,
		11.777039527893067]
	}],
	"bufferViews":[{
		"buffer":0,
		"byteOffset":0,
		"byteLength":20712,
		"target":34963
	},
	{
		"buffer":0,
		"byteOffset":20712,
		"byteLength":88256,
		"target":34962,
		"byteStride":32
	},
	{
		"buffer":1,
		"byteOffset":0,
		"byteLength":12,
		"target":34963
	},
	{
		"buffer":1,
		"byteOffset":12,
		"byteLength":128,
		"target":34962,
		"byteStride":32
	},
	{
		"buffer":2,
		"byteOffset":0,
		"byteLength":48
	},
	{
		"buffer":2,
		"byteOffset":48,
		"byteLength":60
	},
	{
		"buffer":2,
		"byteOffset":108,
		"byteLength":48
	}],
	"buffers":[{
		"uri":"data:application/octet-stream;base64,",
		"byteLength":108968
	},
	{
		"uri":"data:application/octet-stream;base64,",
		"byteLength":140
	},
	{
		"uri":"data:application/octet-stream;base64,",
		"byteLength":156
	}],
	"materials":[{
		"name":"Glasscase01.002",
		"pbrMetallicRoughness":{
			"baseColorFactor":[1.0,
			1.0,
			1.0,
			1.0],
			"metallicFactor":1.0,
			"roughnessFactor":0.0
		},
		"emissiveFactor":[0.0,
		0.0,
		0.0],
		"alphaMode":"BLEND",
		"doubleSided":false
	},
	{
		"name":"MS-Multiverse-logo-blueblack_060522_1",
		"pbrMetallicRoughness":{
			"baseColorFactor":[0.800000011920929,
			0.800000011920929,
			0.800000011920929,
			1.0],
			"metallicFactor":1.0,
			"roughnessFactor":0.0
		},
		"emissiveFactor":[0.0,
		0.0,
		0.0],
		"alphaMode":"OPAQUE",
		"doubleSided":false
	}],
	"animations":[{
		"samplers":[{
			"input":8,
			"interpolation":"LINEAR",
			"output":9
		},
		{
			"input":10,
			"interpolation":"LINEAR",
			"output":11
		},
		{
			"input":12,
			"interpolation":"LINEAR",
			"output":13
		}],
		"channels":[{
			"sampler":0,
			"target":{
				"node":1,
				"path":"translation"
			}
		},
		{
			"sampler":1,
			"target":{
				"node":1,
				"path":"rotation"
			}
		},
		{
			"sampler":2,
			"target":{
				"node":1,
				"path":"scale"
			}
		}]
	}]
}