{
  "asset": {
    "version": "2.0",
    "generator": "THREE.GLTFExporter"
  },
  "scenes": [
    {
      "name": "Scene",
      "nodes": [
        2
      ]
    }
  ],
  "scene": 0,
  "nodes": [
    {
      "rotation": [
        -0.7071067690849304,
        0,
        0,
        -0.7071067690849304
      ],
      "translation": [
        6.256544793359353e-8,
        0.000016016754670999944,
        -0.000004004188667749986
      ],
      "scale": [
        11.777039527893066,
        11.777039527893066,
        11.777039527893066
      ],
      "name": "MS-Multiverse-logo-blueblack_060522_1",
      "extras": {
        "name": "MS-Multiverse-logo-blueblack_060522_1"
      },
      "mesh": 1
    },
    {
      "translation": [
        47.35197242669601,
        0,
        6.197637343459206
      ],
      "name": "GlassCase002",
      "extras": {
        "name": "GlassCase.002"
      },
      "mesh": 0,
      "children": [
        0
      ]
    },
    {
      "name": "onlyBox.gltf",
      "children": [
        1
      ]
    }
  ],
  "bufferViews": [
    {
      "buffer": 0,
      "byteOffset": 0,
      "byteLength": 33096,
      "target": 34962,
      "byteStride": 12
    },
    {
      "buffer": 0,
      "byteOffset": 33096,
      "byteLength": 33096,
      "target": 34962,
      "byteStride": 12
    },
    {
      "buffer": 0,
      "byteOffset": 66192,
      "byteLength": 22064,
      "target": 34962,
      "byteStride": 8
    },
    {
      "buffer": 0,
      "byteOffset": 88256,
      "byteLength": 20712,
      "target": 34963
    },
    {
      "buffer": 0,
      "byteOffset": 108968,
      "byteLength": 48,
      "target": 34962,
      "byteStride": 12
    },
    {
      "buffer": 0,
      "byteOffset": 109016,
      "byteLength": 48,
      "target": 34962,
      "byteStride": 12
    },
    {
      "buffer": 0,
      "byteOffset": 109064,
      "byteLength": 32,
      "target": 34962,
      "byteStride": 8
    },
    {
      "buffer": 0,
      "byteOffset": 109096,
      "byteLength": 12,
      "target": 34963
    },
    {
      "buffer": 0,
      "byteOffset": 109108,
      "byteLength": 12
    },
    {
      "buffer": 0,
      "byteOffset": 109120,
      "byteLength": 36
    },
    {
      "buffer": 0,
      "byteOffset": 109156,
      "byteLength": 12
    },
    {
      "buffer": 0,
      "byteOffset": 109168,
      "byteLength": 48
    },
    {
      "buffer": 0,
      "byteOffset": 109216,
      "byteLength": 12
    },
    {
      "buffer": 0,
      "byteOffset": 109228,
      "byteLength": 36
    }
  ],
  "buffers": [
    {
      "byteLength": 109264,
      "uri": "data:application/octet-stream;base64,"
    }
  ],
  "accessors": [
    {
      "bufferView": 0,
      "componentType": 5126,
      "count": 2758,
      "max": [
        22.89808464050293,
        26.78295135498047,
        64.04476165771484
      ],
      "min": [
        -22.653566360473633,
        -27.13227081298828,
        0.10263442993164062
      ],
      "type": "VEC3"
    },
    {
      "bufferView": 1,
      "componentType": 5126,
      "count": 2758,
      "max": [
        1,
        1,
        1
      ],
      "min": [
        -1,
        -1,
        -1
      ],
      "type": "VEC3"
    },
    {
      "bufferView": 2,
      "componentType": 5126,
      "count": 2758,
      "max": [
        0.9392776489257812,
        0.9607999324798584
      ],
      "min": [
        0.03920000046491623,
        0.08263987302780151
      ],
      "type": "VEC2"
    },
    {
      "bufferView": 3,
      "componentType": 5123,
      "count": 10356,
      "max": [
        2757
      ],
      "min": [
        0
      ],
      "type": "SCALAR"
    },
    {
      "bufferView": 4,
      "componentType": 5126,
      "count": 4,
      "max": [
        0.8609004020690918,
        1.071955919265747,
        2.299534559249878
      ],
      "min": [
        -0.9168773889541626,
        0.0719558596611023,
        2.299534559249878
      ],
      "type": "VEC3"
    },
    {
      "bufferView": 5,
      "componentType": 5126,
      "count": 4,
      "max": [
        0,
        0,
        1
      ],
      "min": [
        0,
        0,
        1
      ],
      "type": "VEC3"
    },
    {
      "bufferView": 6,
      "componentType": 5126,
      "count": 4,
      "max": [
        1,
        0
      ],
      "min": [
        0,
        -1
      ],
      "type": "VEC2"
    },
    {
      "bufferView": 7,
      "componentType": 5123,
      "count": 6,
      "max": [
        3
      ],
      "min": [
        0
      ],
      "type": "SCALAR"
    },
    {
      "bufferView": 8,
      "componentType": 5126,
      "count": 3,
      "max": [
        3
      ],
      "min": [
        0
      ],
      "type": "SCALAR"
    },
    {
      "bufferView": 9,
      "componentType": 5126,
      "count": 3,
      "max": [
        6.256544793359353e-8,
        0.000016016754670999944,
        -0.000004004188667749986
      ],
      "min": [
        6.256544793359353e-8,
        0.000016016754670999944,
        -0.000004004188667749986
      ],
      "type": "VEC3"
    },
    {
      "bufferView": 10,
      "componentType": 5126,
      "count": 3,
      "max": [
        3
      ],
      "min": [
        0
      ],
      "type": "SCALAR"
    },
    {
      "bufferView": 11,
      "componentType": 5126,
      "count": 3,
      "max": [
        -0.7071067690849304,
        0,
        0,
        -0.7071067690849304
      ],
      "min": [
        -0.7071067690849304,
        0,
        0,
        -0.7071067690849304
      ],
      "type": "VEC4"
    },
    {
      "bufferView": 12,
      "componentType": 5126,
      "count": 3,
      "max": [
        3
      ],
      "min": [
        0
      ],
      "type": "SCALAR"
    },
    {
      "bufferView": 13,
      "componentType": 5126,
      "count": 3,
      "max": [
        11.777039527893066,
        11.777039527893066,
        11.777039527893066
      ],
      "min": [
        11.777039527893066,
        11.777039527893066,
        11.777039527893066
      ],
      "type": "VEC3"
    }
  ],
  "materials": [
    {
      "pbrMetallicRoughness": {
        "baseColorFactor": [
          1,
          1,
          1,
          0.13
        ],
        "metallicFactor": 1,
        "roughnessFactor": 1
      },
      "emissiveFactor": [
        0.1803921568627451,
        0.1803921568627451,
        0.1803921568627451
      ],
      "alphaMode": "BLEND",
      "doubleSided": true,
      "name": "Glasscase01.002"
    },
    {
      "pbrMetallicRoughness": {
        "baseColorFactor": [
          0.800000011920929,
          0.800000011920929,
          0.800000011920929,
          1
        ],
        "metallicFactor": 1,
        "roughnessFactor": 0
      },
      "emissiveFactor": [
        1,
        1,
        1
      ],
      "doubleSided": true,
      "name": "MS-Multiverse-logo-blueblack_060522_1"
    }
  ],
  "meshes": [
    {
      "primitives": [
        {
          "mode": 4,
          "attributes": {
            "POSITION": 0,
            "NORMAL": 1,
            "TEXCOORD_0": 2
          },
          "indices": 3,
          "material": 0
        }
      ]
    },
    {
      "primitives": [
        {
          "mode": 4,
          "attributes": {
            "POSITION": 4,
            "NORMAL": 5,
            "TEXCOORD_0": 6
          },
          "indices": 7,
          "material": 1
        }
      ]
    }
  ],
  "animations": [
    {
      "name": "animation_0",
      "samplers": [
        {
          "input": 8,
          "output": 9,
          "interpolation": "LINEAR"
        },
        {
          "input": 10,
          "output": 11,
          "interpolation": "LINEAR"
        },
        {
          "input": 12,
          "output": 13,
          "interpolation": "LINEAR"
        }
      ],
      "channels": [
        {
          "sampler": 0,
          "target": {
            "node": 0,
            "path": "translation"
          }
        },
        {
          "sampler": 1,
          "target": {
            "node": 0,
            "path": "rotation"
          }
        },
        {
          "sampler": 2,
          "target": {
            "node": 0,
            "path": "scale"
          }
        }
      ]
    }
  ]
}